<?xml version="1.0" encoding="utf-8"?>
<!-- Generator: Adobe Illustrator 16.0.4, SVG Export Plug-In . SVG Version: 6.00 Build 0)  -->
<!DOCTYPE svg PUBLIC "-//W3C//DTD SVG 1.1//EN" "http://www.w3.org/Graphics/SVG/1.1/DTD/svg11.dtd">
<svg version="1.1" id="Layer_2" xmlns="http://www.w3.org/2000/svg" xmlns:xlink="http://www.w3.org/1999/xlink" x="0px" y="0px"
	 width="190px" height="60px" viewBox="0 0 190 60" enable-background="new 0 0 190 60" xml:space="preserve">
<g>
	<g>
		<g>
			<path fill="#FFFFFF" d="M29.065,21.918H12.918V36.45v1.614v6.459h3.229v-6.459h12.918V21.918z M25.836,34.836h-9.689v-9.688
				h9.689V34.836z"/>
			<polygon fill="#FFFFFF" points="41.982,50.982 6.458,50.982 6.458,15.459 35.523,15.459 35.523,44.523 19.376,44.523 
				19.376,41.294 32.294,41.294 32.294,18.688 9.689,18.688 9.689,47.752 38.753,47.752 38.753,12.23 3.229,12.23 3.229,50.982 
				0,50.982 0,9 41.982,9 			"/>
		</g>
		<g>
			<polygon fill="#FFFFFF" points="43.908,49.511 43.908,51 43.613,51 43.613,49.511 43.059,49.511 43.059,49.245 44.466,49.245 
				44.466,49.511 			"/>
			<polygon fill="#FFFFFF" points="46.301,51 46.298,49.689 45.745,50.816 45.552,50.816 44.997,49.689 44.997,51 44.719,51 
				44.719,49.245 45.07,49.245 45.649,50.411 46.226,49.245 46.574,49.245 46.574,51 			"/>
		</g>
	</g>
	<g>
		<path fill="#FFFFFF" d="M62.022,21.72c4.625,0,7.285,2.272,7.285,6.302c0,4.237-2.66,6.691-7.285,6.691h-3.281v5.089h-4.599V21.72
			H62.022z M58.741,31.097h3.048c2.014,0,3.177-1.008,3.177-2.919c0-1.886-1.163-2.842-3.177-2.842h-3.048V31.097z"/>
		<path fill="#FFFFFF" d="M84.004,30.708v9.094h-4.366v-1.601c-0.903,1.188-2.375,1.808-4.262,1.808
			c-2.97,0-4.779-1.808-4.779-4.366c0-2.634,1.886-4.185,5.349-4.21h3.668v-0.207c0-1.369-0.906-2.196-2.714-2.196
			c-1.162,0-2.686,0.412-4.158,1.162l-1.266-2.945c2.169-1.007,4.133-1.576,6.458-1.576C81.757,25.671,83.979,27.558,84.004,30.708z
			 M79.614,35.075v-1.24h-2.817c-1.342,0-2.015,0.465-2.015,1.497c0,1.009,0.724,1.655,1.963,1.655
			C78.141,36.987,79.329,36.212,79.614,35.075z"/>
		<path fill="#FFFFFF" d="M99.451,28.85l-3.203,1.937c-0.646-0.904-1.601-1.446-2.816-1.446c-1.73,0-2.919,1.42-2.919,3.513
			c0,2.144,1.189,3.54,2.919,3.54c1.267,0,2.249-0.518,2.843-1.576l3.253,1.912c-1.136,2.041-3.384,3.229-6.329,3.229
			c-4.288,0-7.18-2.841-7.18-7.079c0-4.287,2.918-7.155,7.232-7.155C96.017,25.723,98.238,26.86,99.451,28.85z"/>
		<path fill="#FFFFFF" d="M106.297,36.006v3.796h-4.47V20.634h4.47v10.126l4.599-4.882h5.063l-5.116,5.348l5.271,8.576h-5.298
			l-3.022-5.373L106.297,36.006z"/>
		<path fill="#FFFFFF" d="M118.1,39.802V20.634h4.47v19.168H118.1z"/>
		<path fill="#FFFFFF" d="M133.624,41.25c-1.03,2.531-2.79,3.771-5.371,3.771c-1.551,0-2.814-0.465-4.056-1.42l1.859-3.049
			c0.646,0.516,1.189,0.75,1.835,0.75c0.8,0,1.369-0.363,1.729-1.113l0.335-0.697l-5.786-13.614h4.601l3.408,9.248l3.021-9.248
			h4.445L133.624,41.25z"/>
		<path fill="#FFFFFF" d="M150.234,39.053c-1.007,0.595-2.375,0.956-3.72,0.956c-2.686,0-4.624-1.524-4.624-4.417v-6.15h-1.938
			v-2.917h1.938V22.65h4.444v3.849h3.643v2.943h-3.643v5.452c0,1.086,0.463,1.552,1.29,1.524c0.465,0,1.06-0.18,1.73-0.464
			L150.234,39.053z"/>
		<path fill="#FFFFFF" d="M157.08,21.875c0,1.394-0.982,2.376-2.352,2.376s-2.351-0.982-2.351-2.376
			c0-1.369,0.981-2.351,2.351-2.351S157.08,20.505,157.08,21.875z M152.48,39.802V25.878h4.443v13.924H152.48z"/>
		<path fill="#FFFFFF" d="M172.785,28.85l-3.203,1.937c-0.646-0.904-1.601-1.446-2.813-1.446c-1.732,0-2.921,1.42-2.921,3.513
			c0,2.144,1.188,3.54,2.921,3.54c1.265,0,2.246-0.518,2.841-1.576l3.253,1.912c-1.137,2.041-3.384,3.229-6.329,3.229
			c-4.287,0-7.181-2.841-7.181-7.079c0-4.287,2.918-7.155,7.232-7.155C169.35,25.723,171.572,26.86,172.785,28.85z"/>
		<path fill="#FFFFFF" d="M185.753,27.248l-1.524,2.893c-1.681-0.904-3.229-1.395-4.391-1.395c-0.802,0-1.37,0.31-1.37,0.956
			c0,1.912,7.337,0.981,7.311,5.838c0,2.869-2.505,4.443-5.863,4.443c-2.326,0-4.575-0.672-6.254-1.963l1.423-2.842
			c1.576,1.112,3.384,1.73,4.935,1.73c0.877,0,1.524-0.308,1.524-0.955c0-2.042-7.208-0.982-7.184-5.865
			c0-2.867,2.43-4.417,5.659-4.417C182.032,25.671,184.048,26.241,185.753,27.248z"/>
	</g>
</g>
</svg>
